<svg xmlns="http://www.w3.org/2000/svg" version="1.1" xmlns:xlink="http://www.w3.org/1999/xlink" xmlns:svgjs="http://svgjs.dev/svgjs" width="1500" height="1500" viewBox="0 0 1500 1500"><rect width="1500" height="1500" fill="#000000"></rect><g transform="matrix(0.6666666666666666,0,0,0.6666666666666666,249.39393939393938,464.19104121958327)"><svg viewBox="0 0 396 226" data-background-color="#ffffff" preserveAspectRatio="xMidYMid meet" height="856" width="1500" xmlns="http://www.w3.org/2000/svg" xmlns:xlink="http://www.w3.org/1999/xlink"><g id="tight-bounds" transform="matrix(1,0,0,1,0.2400000000000091,0.18836101233794977)"><svg viewBox="0 0 395.52 225.6232779753241" height="225.6232779753241" width="395.52"><g><svg viewBox="0 0 565.5483719586684 322.6154872950107" height="225.6232779753241" width="395.52"><g transform="matrix(1,0,0,1,238.100315082264,0)"><svg viewBox="0 0 327.4480568764045 322.6154872950107" height="322.6154872950107" width="327.4480568764045"><g id="textblocktransform"><svg viewBox="0 0 327.4480568764045 322.6154872950107" height="322.6154872950107" width="327.4480568764045" id="textblock"><g><svg viewBox="0 0 327.4480568764045 245.672304" height="245.672304" width="327.4480568764045"><g transform="matrix(1,0,0,1,0,0)"><svg width="327.4480568764045" viewBox="2.5 -35.6 47.45 35.6" height="245.672304" data-palette-color="#ea3a36"><path d="M7.45-32.35Q11-35.6 12.85-35.6 14.7-35.6 18.25-32.35 21.8-29.1 22.65-27L22.65-27Q23.2-25.55 23.2-20.45L23.2-20.45 23.2 0 16.3 0 16.3-7.5 9.4-7.5 9.4 0 2.5 0 2.5-20.45Q2.5-25.55 3.05-27L3.05-27Q3.9-29.1 7.45-32.35ZM9.4-20.45L9.4-20.45 9.4-13.5 16.3-13.5 16.3-20.45Q16.3-24.55 15.9-25.48 15.5-26.4 14.53-27.43 13.55-28.45 12.85-28.45 12.15-28.45 11.18-27.43 10.2-26.4 9.8-25.48 9.4-24.55 9.4-20.45ZM38.35-10.5L38.35-16.95 39.35-16.95Q40.3-16.95 41.57-17.88 42.85-18.8 43.2-19.9 43.55-21 43.55-22.85 43.55-24.7 43.2-25.93 42.85-27.15 41.57-28.05 40.3-28.95 39.12-28.95 37.95-28.95 35.95-27.65L35.95-27.65Q36.1-26 36.1-24.3L36.1-24.3 36.1 0 29.2 0 29.2-21.4Q29.2-25.6 28.62-27.33 28.05-29.05 26.2-31.35L26.2-31.35 32.2-35.6Q33.5-34.7 34.5-32.65L34.5-32.65Q38.6-35.6 40.35-35.6 42.1-35.6 45.2-32.8 48.3-30 49.4-28.1L49.4-28.1Q49.95-27.4 49.95-23.25 49.95-19.1 49.4-18L49.4-18Q48.3-16.1 45.2-13.3 42.1-10.5 40.35-10.5L40.35-10.5 38.35-10.5Z" opacity="1" transform="matrix(1,0,0,1,0,0)" fill="#ffffff" class="wordmark-text-0" data-fill-palette-color="primary" id="text-0"></path></svg></g></svg></g><g transform="matrix(1,0,0,1,0,303.669638839104)"><svg viewBox="0 0 149.31631393564044 18.94584845590671" height="18.94584845590671" width="149.31631393564044"><g transform="matrix(1,0,0,1,0,0)"><svg width="149.31631393564044" viewBox="1.2 -41.94 417.88 53.019999999999996" height="18.94584845590671" data-palette-color="#ea3a36"><path d="M1.2 0L13.43-37.35 19.12-37.35 32.18 0 27.76 0 24.05-10.96 9.01-10.96 5.49 0 1.2 0ZM10.13-14.45L22.88-14.45 16.28-34.06 15.53-31.27 10.13-14.45ZM58.2 0.1L57.61-3.25Q52.46 0.49 47.14 0.49L47.14 0.49Q41.26 0.49 39.3-3.83L39.3-3.83Q38.18-6.27 38.05-9 37.91-11.72 37.91-13.78 37.91-15.84 37.95-17.94 37.99-20.04 38.25-21.83 38.52-23.61 39.1-25.04 39.67-26.46 40.74-27.47L40.74-27.47Q42.97-29.54 48.08-29.54 53.2-29.54 57.32-27.76L57.32-27.76 57.32-41.55 61.37-41.94 61.37-13.35Q61.37-4.93 61.84-0.2L61.84-0.2 58.2 0.1ZM57.3-13.55L57.32-24.41Q52.93-25.88 48.83-25.88L48.83-25.88Q45.85-25.88 44.89-25.39 43.94-24.9 43.44-24.12 42.94-23.34 42.62-21.97L42.62-21.97Q42.06-19.41 42.06-13.53L42.06-13.53 42.06-12.99Q42.06-7.5 43.26-5.4L43.26-5.4Q44.55-3.17 48.07-3.17L48.07-3.17 48.44-3.17Q51.8-3.17 55.61-5.32L55.61-5.32Q56.66-5.91 57.42-6.49L57.42-6.49 57.42-6.54Q57.3-8.81 57.3-13.55L57.3-13.55ZM74.95-36.01L74.95-36.01Q73.31-36.01 72.85-36.47L72.85-36.47Q72.11-37.23 72.11-38.56 72.11-39.89 72.27-40.47 72.43-41.04 72.75-41.36L72.75-41.36Q73.33-41.94 74.54-41.94 75.75-41.94 76.28-41.82 76.8-41.7 77.14-41.36L77.14-41.36Q77.73-40.77 77.73-39.44 77.73-38.11 77.6-37.54 77.46-36.96 77.14-36.62L77.14-36.62Q76.53-36.01 74.95-36.01ZM73.02 0L72.97-29.05 76.97-29.05 76.97 0 73.02 0ZM101.63-4.57L103.02-1.39Q99.04 0.49 95.67 0.49L95.67 0.49Q89.57 0.49 88.74-4.74L88.74-4.74Q88.54-5.98 88.54-8.35L88.54-8.35 88.54-25.66 85.03-25.66 85.03-28.66 88.54-29.05 89.18-35.69 92.57-35.69 92.57-29.05 101.04-29.05 101.04-25.66 92.57-25.66 92.57-8.42Q92.57-5.42 93.01-4.59L93.01-4.59Q93.82-3.08 96.23-3.08 98.65-3.08 101.63-4.57L101.63-4.57ZM107.83 10.21L108.93 7.03Q110.71 7.67 111.84 7.67 112.98 7.67 113.33 7.6 113.69 7.54 114.05 7.35L114.05 7.35Q114.91 6.88 115.32 5.83L115.32 5.83Q116.35 3.34 117.1 0.37L117.1 0.37 105.9-29.05 110.41-29.05 117.98-7.64 119.13-3.88 120.18-7.67 126.87-29.05 131.12-29.05 118.86 6.88Q117.52 11.08 112.66 11.08L112.66 11.08Q109.58 11.08 107.83 10.21L107.83 10.21ZM160.9-19.41L160.9-10.3Q160.9-5.44 161.36-0.2L161.36-0.2 157.75 0.1 157.14-3.3Q154.04-0.81 148.94 0.17L148.94 0.17Q147.28 0.49 145.98 0.49 144.69 0.49 143.7 0.37 142.71 0.24 141.8-0.11 140.88-0.46 140.1-1.1 139.32-1.73 138.73-2.78L138.73-2.78Q137.49-5 137.49-8.12 137.49-11.23 137.94-12.95 138.39-14.67 139.44-15.82L139.44-15.82Q141.52-18.09 146.42-18.09 151.33-18.09 156.9-16.24L156.9-16.24 156.9-19.41Q156.9-24.71 152.53-25.68L152.53-25.68Q151.11-26 149.28-26L149.28-26Q145.1-26 140.61-24.34L140.61-24.34 139.71-27.86Q140.95-28.69 146.06-29.35L146.06-29.35Q147.67-29.54 149.93-29.54 152.18-29.54 154.36-29 156.53-28.47 157.97-27.25L157.97-27.25Q160.9-24.83 160.9-19.41L160.9-19.41ZM156.8-13.18L156.8-13.18Q151.09-14.62 146.25-14.62L146.25-14.62Q143.27-14.62 142.3-12.92L142.3-12.92Q141.64-11.72 141.64-9.38 141.64-7.03 141.89-5.98 142.15-4.93 142.74-4.25L142.74-4.25Q143.88-2.95 146.52-2.95L146.52-2.95Q150.65-2.95 154.7-5.08L154.7-5.08Q155.94-5.71 156.95-6.49L156.95-6.49Q156.8-9.13 156.8-13.18ZM199.32-11.72L199.32-11.72Q198.32-11.67 195.82-11.67 193.32-11.67 188.9-12.33L188.9-12.33 188.9 0 184.75 0 184.75-37.21Q191.85-37.87 198.88-37.87L198.88-37.87Q204.79-37.87 207.16-35.21L207.16-35.21Q209.16-32.96 209.16-27.78L209.16-27.78 209.16-24.9Q209.16-20.9 208.28-18.07L208.28-18.07Q206.4-12.16 199.32-11.72ZM199.05-34.35L199.05-34.35Q192.37-34.35 188.9-34.08L188.9-34.08 188.9-15.77Q193.17-15.21 196.5-15.21 199.84-15.21 201.29-15.69 202.74-16.16 203.55-17.29L203.55-17.29Q204.91-19.19 204.91-24.85L204.91-24.85 204.91-27.88Q204.91-31.37 203.55-32.86L203.55-32.86Q202.23-34.35 199.05-34.35ZM239.7-29.05L239.7-12.79Q239.7-4.74 240.17-0.2L240.17-0.2 236.53 0.1 235.94-3.34Q233.09-0.98 229.28 0.07L229.28 0.07Q227.76 0.49 225.68 0.49 223.59 0.49 221.94-0.01 220.29-0.51 219.32-1.61L219.32-1.61Q217.53-3.59 217.53-8.81L217.53-8.81 217.53-29.05 221.64-29.05 221.64-9.47Q221.64-5.96 222.32-4.94 223-3.93 223.94-3.58 224.88-3.22 226.18-3.22 227.47-3.22 228.68-3.43 229.89-3.64 231.11-4.03L231.11-4.03Q233.67-4.86 235.75-6.3L235.75-6.3 235.75-6.32Q235.65-8.18 235.65-13.55L235.65-13.55 235.65-29.05 239.7-29.05ZM261.45-25.51L261.45-25.51Q258.33-25.51 255.08-22.39L255.08-22.39 255.08 0 251.03 0 251.03-29.05 254.59-29.05 254.98-25.2Q256.13-26.98 257.46-27.98 258.79-28.98 259.65-29.2L259.65-29.2Q260.87-29.54 261.96-29.54 263.06-29.54 264.72-29.1L264.72-29.1 264.36-25.22Q263.11-25.51 261.45-25.51ZM270.17-2.39L271.92-5.76Q276.95-2.95 282.03-2.95L282.03-2.95Q286.25-2.95 286.99-5.96L286.99-5.96Q287.23-6.98 287.23-8.46 287.23-9.94 286.89-10.75 286.55-11.57 285.74-11.98 284.94-12.38 283.61-12.57 282.27-12.77 280.22-13.12 278.17-13.48 276.46-13.92 274.76-14.36 273.56-15.19L273.56-15.19Q271.02-16.97 271.12-21.19L271.12-21.19 271.12-21.8Q271.12-26.25 274.05-28.13L274.05-28.13Q276.88-29.98 283.4-29.39L283.4-29.39Q287.84-28.98 290.48-27.86L290.48-27.86 289.33-24.17Q286.4-25.42 282.3-25.98L282.3-25.98Q281.03-26.15 279.92-26.15 278.81-26.15 277.9-25.98 277-25.81 276.39-25.34L276.39-25.34Q275.22-24.39 275.17-21.8L275.17-21.8Q275.1-18.75 276.88-17.92L276.88-17.92Q278.59-17.11 280.93-16.81 283.28-16.5 284.77-16.27 286.25-16.04 287.48-15.65 288.7-15.26 289.57-14.4L289.57-14.4Q291.41-12.67 291.36-8.37L291.36-8.37Q291.23-0.88 285.11 0.17L285.11 0.17Q283.25 0.49 281.4 0.49 279.54 0.49 277.99 0.26 276.44 0.02 275.02-0.39L275.02-0.39Q272.34-1.15 270.17-2.39L270.17-2.39ZM306.88 0L297.85-29.05 302.19-29.05 308.35-7.71 309.45-3.05 310.25-6.96 316.6-29.05 320.6-29.05 326.85-7.71 327.93-3 328.71-6.98 334.76-29.05 339.16-29.05 330.56 0 325.22 0 319.65-18.63 318.53-24.34 317.53-18.63 311.98 0 306.88 0ZM369.04-19.41L369.04-10.3Q369.04-5.44 369.5-0.2L369.5-0.2 365.89 0.1 365.28-3.3Q362.18-0.81 357.07 0.17L357.07 0.17Q355.41 0.49 354.12 0.49 352.83 0.49 351.84 0.37 350.85 0.24 349.93-0.11 349.02-0.46 348.24-1.1 347.46-1.73 346.87-2.78L346.87-2.78Q345.62-5 345.62-8.12 345.62-11.23 346.08-12.95 346.53-14.67 347.58-15.82L347.58-15.82Q349.65-18.09 354.56-18.09 359.47-18.09 365.03-16.24L365.03-16.24 365.03-19.41Q365.03-24.71 360.66-25.68L360.66-25.68Q359.25-26 357.42-26L357.42-26Q353.24-26 348.75-24.34L348.75-24.34 347.85-27.86Q349.09-28.69 354.19-29.35L354.19-29.35Q355.8-29.54 358.06-29.54 360.32-29.54 362.49-29 364.67-28.47 366.11-27.25L366.11-27.25Q369.04-24.83 369.04-19.41L369.04-19.41ZM364.94-13.18L364.94-13.18Q359.22-14.62 354.39-14.62L354.39-14.62Q351.41-14.62 350.43-12.92L350.43-12.92Q349.77-11.72 349.77-9.38 349.77-7.03 350.03-5.98 350.29-4.93 350.87-4.25L350.87-4.25Q352.02-2.95 354.66-2.95L354.66-2.95Q358.78-2.95 362.84-5.08L362.84-5.08Q364.08-5.71 365.08-6.49L365.08-6.49Q364.94-9.13 364.94-13.18ZM393.84-25.73L393.84-25.73Q389.08-25.73 384.15-22.92L384.15-22.92 384.15 0 380.09 0 380.09-29.05 383.66-29.05 384.05-26.05Q386.71-28.22 390.67-29.15L390.67-29.15Q392.28-29.54 394.45-29.54 396.62-29.54 398.28-29.04 399.94-28.54 400.92-27.44L400.92-27.44Q402.7-25.46 402.7-20.24L402.7-20.24 402.7 0 398.6 0 398.6-19.48Q398.6-23 397.92-24.01 397.23-25.02 396.29-25.38 395.35-25.73 393.84-25.73ZM416.3-36.01L416.3-36.01Q414.66-36.01 414.2-36.47L414.2-36.47Q413.47-37.23 413.47-38.56 413.47-39.89 413.62-40.47 413.78-41.04 414.1-41.36L414.1-41.36Q414.69-41.94 415.9-41.94 417.1-41.94 417.63-41.82 418.15-41.7 418.5-41.36L418.5-41.36Q419.08-40.77 419.08-39.44 419.08-38.11 418.95-37.54 418.81-36.96 418.5-36.62L418.5-36.62Q417.88-36.01 416.3-36.01ZM414.37 0L414.32-29.05 418.32-29.05 418.32 0 414.37 0Z" opacity="1" transform="matrix(1,0,0,1,0,0)" fill="#ffffff" class="slogan-text-1" data-fill-palette-color="secondary" id="text-1"></path></svg></g></svg></g></svg></g></svg></g><g transform="matrix(1,0,0,1,0,44.922282323231045)"><svg viewBox="0 0 180.10298024316 232.77092264854863" height="232.77092264854863" width="180.10298024316"><g><svg xmlns="http://www.w3.org/2000/svg" xmlns:xlink="http://www.w3.org/1999/xlink" version="1.1" x="0" y="0" viewBox="11.452907485383136 0.18319745593316278 77.09324248441663 99.63780254406683" enable-background="new 0 0 100 100" xml:space="preserve" height="232.77092264854863" width="180.10298024316" class="icon-icon-0" data-fill-palette-color="accent" id="icon-0"><path d="M82.511 27.412c-0.153-0.45-0.335-0.918-0.542-1.396-0.309-1.83-1.747-5.274-1.766-5.313l-0.298-0.659c-0.651-1.429-1.391-3.047-1.525-4.437-0.104-1.073 1.284-6.627 1.951-9.297 1.232-4.926 1.362-5.439-0.14-5.982-0.063-0.023-0.339-0.117-0.695-0.087-0.002 0-0.006-0.001-0.009-0.002-1.432-0.309-2.96 0.686-5.537 2.471-0.451 0.312-1.042 0.721-1.599 1.081 0.194-0.91 0.166-2.092-0.995-3.021-1.473-1.179-3.561 0.025-6.72 1.851-0.885 0.512-2.206 1.277-3.088 1.671-0.698-1.148-1.984-2.393-4.411-1.901-1.373 0.278-2.967 1.482-5.24 3.29-0.594 0.472-1.365 1.083-2.006 1.543-0.01-0.414-0.058-0.866-0.225-1.31-0.799-2.107-2.104-2.776-3.059-2.966-3.087-0.618-6.411 2.896-9.074 5.721-0.167 0.178-0.341 0.361-0.512 0.541-0.771-1.276-1.738-2.592-3.159-2.841-1.37-0.249-7.019 1.107-12.253 5.707-4.985 4.38-10.784 12.835-10.101 28.248 0.189 4.247 2.483 41.865 24.748 55.107 4.921 2.929 10.396 4.39 16.39 4.39 7.176 0 15.095-2.097 23.695-6.287C99.438 82.278 82.694 27.953 82.511 27.412zM74.902 90.58c-14.725 7.176-27.163 7.86-36.969 2.026C17.15 80.245 14.969 44.241 14.789 40.177c-0.458-10.333 2.045-18.458 7.441-24.148 4.628-4.88 9.882-6.251 11.043-6.399 0.393 0.325 1.019 1.403 1.331 1.942 0.274 0.472 0.511 0.881 0.757 1.21 0.526 0.703 1.515 0.868 2.241 0.371 0.604-0.413 1.324-1.176 2.319-2.233 1.294-1.372 4.726-5.016 6.044-4.754 0.19 0.039 0.432 0.387 0.624 0.891 0.027 0.109 0.021 0.439 0.016 0.656-0.017 0.818-0.049 2.342 1.308 3.141 1.58 0.931 3.349-0.477 6.025-2.604 1.178-0.935 3.147-2.5 3.851-2.642 0.6-0.123 0.779-0.16 1.327 1.18 0.203 0.495 0.633 0.86 1.155 0.979 1.377 0.316 3.096-0.622 6.008-2.305 0.714-0.414 1.725-0.997 2.535-1.404-0.262 0.765-0.496 1.825 0.147 2.846 0.317 0.499 0.812 0.84 1.398 0.959 1.408 0.289 2.915-0.695 5.456-2.454 0.459-0.318 1.062-0.735 1.631-1.101-0.099 0.398-0.201 0.809-0.302 1.206-1.284 5.138-2.182 8.893-2.034 10.411 0.077 0.792 0.268 1.578 0.518 2.342-1.675-1.002-3.583-1.524-5.677-1.222-1.18 0.17-2.325 0.668-3.379 1.452-1.541-1.364-3.285-2.314-5.158-2.481-4.594-0.411-10.566-0.412-14.952 1.486-1.987-1.58-4.941-1.796-8.208-0.576-5.852 2.186-9.76 5.959-11.616 11.216-4.686 13.274 5.215 32.351 9.747 40.022-0.164 1.434-0.124 2.876 0.167 4.269 0.791 3.781 4.143 10.188 17.713 10.63 16.722 0.545 22.231-6.685 22.858-11.04 0.339-2.355-0.765-3.736-2.013-4.06-1.087-0.281-4.48-0.328-12.545-0.372-7.308-0.041-19.064-0.107-22.618-0.773 1-3.952 3.772-7.497 6.152-8.631 1.762-0.844 2.623-0.134 3.116 0.473 0.646 0.792 1.375 0.934 1.863 0.939 1.077-0.021 1.734-0.803 2.146-1.342 0.404 0.174 0.913 0.562 1.444 0.966 1.293 0.984 3.066 2.335 5.648 2.366 1.396-0.012 2.551-0.383 3.365-1.188 1.332-1.316 1.442-3.296 1.442-5.379 0-2.181-0.385-4.188-0.757-6.127l-0.197-1.041c-0.765-4.127-1.848-8.546-3.217-13.135-0.281-0.939-0.59-1.899-0.901-2.862-0.438-1.356-0.891-2.758-1.247-4.074-0.231-0.85-0.744-3.052-1.118-4.66-0.191-0.825-0.347-1.49-0.408-1.738-0.221-0.879-1.112-1.414-1.991-1.193-0.88 0.22-1.414 1.112-1.193 1.991 0.06 0.241 0.21 0.885 0.396 1.684 0.381 1.633 0.9 3.869 1.147 4.776 0.377 1.39 0.841 2.83 1.29 4.222 0.304 0.939 0.606 1.877 0.879 2.794 1.338 4.477 2.395 8.78 3.136 12.792l0.201 1.062c0.358 1.872 0.699 3.64 0.699 5.508 0 0.901 0 2.581-0.468 3.044-0.209 0.205-0.678 0.239-1.019 0.239-1.496-0.018-2.566-0.832-3.7-1.694-1.138-0.868-2.422-1.863-4.105-1.72-0.722 0.055-1.21 0.481-1.562 0.894-1.704-1.469-3.945-1.686-6.301-0.563-2.839 1.354-5.578 4.587-7.119 8.388-4.623-8.42-11.58-23.769-7.835-34.374 1.539-4.357 4.702-7.378 9.669-9.233 0.633-0.237 2.413-0.813 3.896-0.457-2.427 2.45-5.893 8.44-5.435 12.451 0.201 1.769 1.147 3.108 2.663 3.77 2.727 1.193 6.862 0.501 8.436-2.391 0.894-1.645 1.177-4.261 0.842-7.779-0.061-0.642-0.354-3.16-1.345-5.357 3.003-1.086 7.366-1.424 12.663-0.952 0.985 0.088 2.072 0.639 3.16 1.577-0.101 0.141-0.199 0.284-0.297 0.43-2.025 3.06-2.879 7.052-2.12 9.932 0.317 1.204 1.155 2.146 2.425 2.726 2.276 1.041 5.57 0.713 7.439-0.207 0.839-0.411 1.736-1.451 1.249-4.067-0.438-2.36-1.95-5.873-4.165-8.749 0.525-0.341 1.066-0.557 1.606-0.634 3.628-0.533 6.886 3.368 8.464 6.87 0.006 0.017 0.014 0.033 0.021 0.05 0.19 0.426 0.356 0.847 0.494 1.253C82.27 36.925 93.027 81.749 74.902 90.58zM66.648 23.53c2.244 3.174 3.165 6.318 3.199 7.445-1.197 0.403-3.087 0.494-4.19-0.011-0.525-0.24-0.593-0.493-0.613-0.576-0.498-1.885 0.133-4.781 1.502-7.002C66.58 23.434 66.615 23.482 66.648 23.53zM46.081 31.805c-0.652 1.199-2.913 1.53-4.238 0.952-0.32-0.14-0.628-0.374-0.715-1.133-0.313-2.747 2.631-7.936 4.467-9.747 0.484 1.192 0.819 2.716 0.944 4.03C46.796 28.601 46.624 30.806 46.081 31.805zM39.57 70.049c3.103 0.547 9.463 0.748 22.979 0.823 4.6 0.025 9.753 0.055 11.355 0.212 0.026 0.468-0.139 1.45-0.95 2.659-1.315 1.952-5.758 6.445-18.579 6.037-8.518-0.276-13.568-3.049-14.608-8.021C39.649 71.195 39.586 70.624 39.57 70.049z" fill="#ffffff" data-fill-palette-color="accent"></path></svg></g></svg></g></svg></g><defs></defs></svg><rect width="395.52" height="225.6232779753241" fill="none" stroke="none" visibility="hidden"></rect></g></svg></g></svg>